<svg xmlns="http://www.w3.org/2000/svg" width="493.5" height="352.2"><rect width="493.5" height="352.2" x="0" y="0" fill="#FFFFFF" id="background"/><g id="viz" transform="translate(0,0)"><g id="cells"><path d="M329.16562291130674,352.2L380.4041220642019,281.22005533590794L401.53763184090246,174.46420336216175L335.34365948863797,173.83391137704558L256.6173072415433,331.454751227997L262.8787500459463,338.49023996337667L278.98026252995277,352.2z" fill="#e64b35" stroke="#FFFFFF" stroke-width="1" id="Pneumonia"/><path d="M335.34365948863797,173.83391137704558L260.43343758003135,2.842170943040401e-14L-5.684341886080802e-14,4.289247154928582e-14L0,314.69457240140775L46.99590720672735,352.2L218.71221375845454,352.2L256.6173072415433,331.454751227997z" fill="#e64b35" stroke="#FFFFFF" stroke-width="1" id="Influenza"/><path d="M315.68760522537696,0L260.4334375800313,0L335.34365948863797,173.83391137704558L401.53763184090246,174.46420336216175L406.8211398925207,147.7745806056756z" fill="#e64b35" stroke="#FFFFFF" stroke-width="1" id="Chickenpox"/><path d="M0,352.2L46.99590720672735,352.2L0,314.69457240140775z" fill="#e64b35" stroke="#FFFFFF" stroke-width="1" id="Mumps"/><path d="M256.6173072415433,331.454751227997L218.71221375845454,352.2L262.6029907770405,352.20000000000016L262.8787500459463,338.49023996337667z" fill="#e64b35" stroke="#FFFFFF" stroke-width="1" id="Scarlet fever"/><path d="M278.98026252995277,352.2L262.8787500459463,338.49023996337667L262.6029907770405,352.2z" fill="#e64b35" stroke="#FFFFFF" stroke-width="1" id="Rubella"/><path d="M345.7302761643565,0L335.82930990291845,9.746124302244603L328.17612042996785,20.250340376750337L406.8211398925207,147.77458060567562L423.5,145.75989580503045L423.5,1.7210600150628323L420.63453741849554,6.661338147750939e-15z" fill="#4dbbd5" stroke="#FFFFFF" stroke-width="1" id="Dengue fever"/><path d="M322.8969517161505,11.690078279155927L332.4999366099843,7.130202862498609L332.09738039998365,1.7763568394002505e-15L315.68760522537684,3.050465833358371e-15z" fill="#4dbbd5" stroke="#FFFFFF" stroke-width="1" id="Scrub Typhus"/><path d="M332.09738039998365,0L332.4999366099843,7.130202862498609L335.82930990291845,9.746124302244603L345.7302761643565,1.7763568394002505e-15z" fill="#4dbbd5" stroke="#FFFFFF" stroke-width="1" id="Leptospirosis"/><path d="M332.4999366099843,7.130202862498609L322.89695171615057,11.690078279155932L328.17612042996785,20.25034037675033L335.82930990291845,9.746124302244603z" fill="#4dbbd5" stroke="#FFFFFF" stroke-width="1" id="Melioidosis"/><path d="M420.63453741849554,7.105427357601002e-15L423.5,1.7210600150628217L423.5,6.8833827526759706e-15z" fill="#4dbbd5" stroke="#FFFFFF" stroke-width="1" id="S. suis"/><path d="M414.89629505834637,152.2469345621616L406.00554544518553,151.89455315213442L380.4041220642019,281.220055335908L405.99180222684635,286.62136214760665L423.5,283.8545340584018L423.49999999999994,153.4900108252511L421.4340432648528,153.12959864842193z" fill="#3c5488" stroke="#FFFFFF" stroke-width="1" id="HFMD"/><path d="M416.57638954104425,146.59621751211108L415.72678568648354,146.69884346864063L414.89629505834637,152.2469345621616L421.4340432648528,153.12959864842193z" fill="#3c5488" stroke="#FFFFFF" stroke-width="1" id="Amebiasis"/><path d="M416.57638954104425,146.59621751211108L421.4340432648528,153.12959864842193L423.5,153.4900108252511L423.5,145.75989580503045z" fill="#3c5488" stroke="#FFFFFF" stroke-width="1" id="Shigellosis"/><path d="M423.5,290.3171699461878L423.5,283.8545340584018L405.99180222684635,286.62136214760665z" fill="#3c5488" stroke="#FFFFFF" stroke-width="1" id="Typhoid"/><path d="M415.72678568648354,146.69884346864063L406.8211398925207,147.7745806056756L406.0055454451855,151.89455315213442L414.89629505834637,152.2469345621616z" fill="#3c5488" stroke="#FFFFFF" stroke-width="1" id="HAV"/><path d="M417.4715483144576,293.314470344067L417.0058599146348,288.94632105108485L380.40412206420183,281.220055335908L372.1719871031061,292.6239116874049L404.09754804461426,311.79985350339723z" fill="#91d1c2" stroke="#FFFFFF" stroke-width="1" id="Gonorrhoea"/><path d="M372.17198710310606,292.6239116874049L329.1656229113067,352.2L400.5729974796028,352.2L406.39838497807125,341.70323504767214L409.30586609822467,328.04927782018353L408.3318799263916,320.2732236656706L404.09754804461426,311.79985350339723z" fill="#91d1c2" stroke="#FFFFFF" stroke-width="1" id="Syphilis"/><path d="M423.5,294.961193162539L417.4715483144576,293.314470344067L404.09754804461426,311.79985350339723L408.3318799263916,320.2732236656706L423.5,319.80894269394366z" fill="#91d1c2" stroke="#FFFFFF" stroke-width="1" id="HBV"/><path d="M423.5,328.01783185196206L409.30586609822467,328.04927782018353L406.39838497807125,341.70323504767214L423.5,351.1443836747844z" fill="#91d1c2" stroke="#FFFFFF" stroke-width="1" id="CA (HPV)"/><path d="M423.5,352.2L423.5,351.1443836747844L406.39838497807125,341.70323504767214L400.5729974796028,352.2z" fill="#91d1c2" stroke="#FFFFFF" stroke-width="1" id="Genital herpes"/><path d="M409.30586609822467,328.04927782018353L423.5,328.01783185196206L423.5,319.80894269394366L408.3318799263916,320.2732236656706z" fill="#91d1c2" stroke="#FFFFFF" stroke-width="1" id="Chancroid"/><path d="M417.0058599146348,288.94632105108485L417.4715483144576,293.314470344067L423.5,294.961193162539L423.5,290.3171699461878z" fill="#91d1c2" stroke="#FFFFFF" stroke-width="1" id="HCV"/><path d="M406.8211398925207,147.7745806056756L315.6876052253769,0L0,3.258125160384589e-14L0,352.2L329.16562291130674,352.2L380.40412206420183,281.220055335908z" fill="none" stroke="#FFFFFF" stroke-width="2" id="Respiratory IDs"/><path d="M423.5,6.885854565068347e-15L315.68760522537684,0L406.8211398925207,147.7745806056756L423.5,145.75989580503045z" fill="none" stroke="#FFFFFF" stroke-width="2" id="Vector-borne and zoonotic IDs"/><path d="M423.5,145.75989580503045L406.8211398925207,147.7745806056756L380.40412206420183,281.220055335908L423.5,290.3171699461878z" fill="none" stroke="#FFFFFF" stroke-width="2" id="Gastrointestinal IDs"/><path d="M423.5,352.2L423.5,290.3171699461878L380.40412206420183,281.220055335908L329.1656229113067,352.2z" fill="none" stroke="#FFFFFF" stroke-width="2" id="Sexually IDs"/><path d="M0,0L0,352.2L423.5,352.2L423.5,0z" fill="none" stroke="#FFFFFF" stroke-width="3"/></g><g id="labels"><text text-anchor="middle" dominant-baseline="text-before-edge" transform="translate(334.00696330346443,259.36126489570813)"><tspan x="3" y="0.2em" style="font-family: Arial, sans-serif; font-size: 10px; fill: black; font-weight: bold;">Pneumonia</tspan></text><text text-anchor="middle" dominant-baseline="text-before-edge" transform="translate(149.12941925594583,167.0210980178646)"><tspan x="3" y="0.2em" style="font-family: Arial, sans-serif; font-size: 10px; fill: black; font-weight: bold;">Influenza</tspan></text><text text-anchor="middle" dominant-baseline="text-before-edge" transform="translate(335.651567008121,86.64313627092326)"><tspan x="3" y="0.2em" style="font-family: Arial, sans-serif; font-size: 10px; fill: black; font-weight: bold;">Chickenpox</tspan></text><text text-anchor="middle" dominant-baseline="text-before-edge" transform="translate(15.954188828684927,333.89536588060474)"><tspan x="3" y="0.2em" style="font-family: Arial, sans-serif; font-size: 10px; fill: black; font-weight: bold;">Mumps</tspan></text><text text-anchor="middle" dominant-baseline="text-before-edge" transform="translate(243.66872593904628,339.76047063437966)"><tspan x="3" y="0.2em" style="font-family: Arial, sans-serif; font-size: 10px; fill: black; font-weight: bold;">Scarlet fever</tspan></text><text text-anchor="middle" dominant-baseline="text-before-edge" transform="translate(265.1819818836068,340.1931900776966)"><tspan x="3" y="0.2em" style="font-family: Arial, sans-serif; font-size: 10px; fill: black; font-weight: bold;">Rubella</tspan></text><text text-anchor="middle" dominant-baseline="text-before-edge" transform="translate(388.6466452881919,51.7246062520997)"><tspan x="3" y="0.2em" style="font-family: Arial, sans-serif; font-size: 10px; fill: black; font-weight: bold;">Dengue fever</tspan></text><text text-anchor="middle" dominant-baseline="text-before-edge" transform="translate(324.83663300357915,-0.5628751920853503)"><tspan x="3" y="0.2em" style="font-family: Arial, sans-serif; font-size: 10px; fill: black; font-weight: bold;">Scrub Typhus</tspan></text><text text-anchor="middle" dominant-baseline="text-before-edge" transform="translate(336.52718971666985,-1.2228993588550257)"><tspan x="3" y="0.2em" style="font-family: Arial, sans-serif; font-size: 10px; fill: black; font-weight: bold;">Leptospirosis</tspan></text><text text-anchor="middle" dominant-baseline="text-before-edge" transform="translate(329.04502944201283,8.299903663212383)"><tspan x="3" y="0.2em" style="font-family: Arial, sans-serif; font-size: 10px; fill: black; font-weight: bold;">Melioidosis</tspan></text><text text-anchor="middle" dominant-baseline="text-before-edge" transform="translate(422.84194693963315,-5.208537559207682)"><tspan x="3" y="0.2em" style="font-family: Arial, sans-serif; font-size: 10px; fill: black; font-weight: bold;">S. suis</tspan></text><text text-anchor="middle" dominant-baseline="text-before-edge" transform="translate(407.2604291998292,222.25758390156534)"><tspan x="3" y="0.2em" style="font-family: Arial, sans-serif; font-size: 10px; fill: black; font-weight: bold;">HFMD</tspan></text><text text-anchor="middle" dominant-baseline="text-before-edge" transform="translate(417.5759532298327,145.8521882633355)"><tspan x="3" y="0.2em" style="font-family: Arial, sans-serif; font-size: 10px; fill: black; font-weight: bold;">Amebiasis</tspan></text><text text-anchor="middle" dominant-baseline="text-before-edge" transform="translate(421.0387221272186,143.27757461718176)"><tspan x="3" y="0.2em" style="font-family: Arial, sans-serif; font-size: 10px; fill: black; font-weight: bold;">Shigellosis</tspan></text><text text-anchor="middle" dominant-baseline="text-before-edge" transform="translate(416.45793183377344,280.4584153021442)"><tspan x="3" y="0.2em" style="font-family: Arial, sans-serif; font-size: 10px; fill: black; font-weight: bold;">Typhoid</tspan></text><text text-anchor="middle" dominant-baseline="text-before-edge" transform="translate(410.3317066648192,144.76780107885412)"><tspan x="3" y="0.2em" style="font-family: Arial, sans-serif; font-size: 10px; fill: black; font-weight: bold;">HAV</tspan></text><text text-anchor="middle" dominant-baseline="text-before-edge" transform="translate(395.94203430417616,288.9737272549503)"><tspan x="3" y="0.2em" style="font-family: Arial, sans-serif; font-size: 10px; fill: black; font-weight: bold;">Gonorrhoea</tspan></text><text text-anchor="middle" dominant-baseline="text-before-edge" transform="translate(375.1437655617236,323.6002609911587)"><tspan x="3" y="0.2em" style="font-family: Arial, sans-serif; font-size: 10px; fill: black; font-weight: bold;">Syphilis</tspan></text><text text-anchor="middle" dominant-baseline="text-before-edge" transform="translate(415.75312072167884,303.306861321463)"><tspan x="3" y="0.2em" style="font-family: Arial, sans-serif; font-size: 10px; fill: black; font-weight: bold;">HBV</tspan></text><text text-anchor="middle" dominant-baseline="text-before-edge" transform="translate(416.24759901355475,332.35293376843435)"><tspan x="3" y="0.2em" style="font-family: Arial, sans-serif; font-size: 10px; fill: black; font-weight: bold;">CA (HPV)</tspan></text><text text-anchor="middle" dominant-baseline="text-before-edge" transform="translate(410.3065306977703,343.11453356612793)"><tspan x="3" y="0.2em" style="font-family: Arial, sans-serif; font-size: 10px; fill: black; font-weight: bold;">Genital herpes</tspan></text><text text-anchor="middle" dominant-baseline="text-before-edge" transform="translate(416.21681074879126,318.45567515722394)"><tspan x="3" y="0.2em" style="font-family: Arial, sans-serif; font-size: 10px; fill: black; font-weight: bold;">Chancroid</tspan></text><text text-anchor="middle" dominant-baseline="text-before-edge" transform="translate(420.3800067736991,286.3683949892865)"><tspan x="3" y="0.2em" style="font-family: Arial, sans-serif; font-size: 10px; fill: black; font-weight: bold;">HCV</tspan></text></g></g></svg>