<svg xmlns="http://www.w3.org/2000/svg" width="600" height="260"><rect width="600" height="260" x="0" y="0" fill="#FFFFFF" id="background"/><g id="viz" transform="translate(10,10)"><g id="cells"><path d="M580,0L513.3563997312997,0L524.4104396769958,228.8615716242163L580,227.91318449365707z" fill="#ff7f0e" stroke="#FFFFFF" stroke-width="2" id="Pneumonia"/><path d="M119.32562505707779,0L110.68781862769904,16.8400356036641L124.53859975692117,229.5999564613793L130.53388060477226,240L519.005587423501,240L524.4104396769958,228.8615716242163L513.3563997312997,0z" fill="#ff7f0e" stroke="#FFFFFF" stroke-width="2" id="Influenza"/><path d="M110.68781862769904,16.8400356036641L81.4348668526121,14.958043503355915L55.17822362631316,128.1577247039006L58.584478760664844,174.64184619021802L77.97008868033348,240L78.12994547695519,240L124.53859975692117,229.5999564613793z" fill="#ff7f0e" stroke="#FFFFFF" stroke-width="2" id="Chickenpox"/><path d="M130.5338806047723,240L124.53859975692117,229.5999564613793L78.12994547695517,240z" fill="#ff7f0e" stroke="#FFFFFF" stroke-width="2" id="Mumps"/><path d="M84.90438202673423,1.1306591776025988e-16L81.43486685261215,14.95804350335592L110.68781862769904,16.8400356036641L119.32562505707779,0z" fill="#ff7f0e" stroke="#FFFFFF" stroke-width="2" id="Scarlet fever"/><path d="M519.005587423501,240L580,240L580,227.91318449365707L524.4104396769958,228.8615716242163z" fill="#ff7f0e" stroke="#FFFFFF" stroke-width="2" id="Rubella"/><path d="M2.6733644902001004,0L0,1.687837115363891L4.263256414560601e-14,113.94784068348046L20.659610010252308,122.98124204205118L49.38862233036109,122.64890002003234L56.87186133155241,120.85598218297243L84.90438202673423,0z" fill="#d62728" stroke="#FFFFFF" stroke-width="2" id="Dengue fever"/><path d="M20.659610010252308,122.98124204205118L20.42432083638177,124.54355875716753L49.33481809855601,127.55005087230167L49.38862233036109,122.64890002003234z" fill="#d62728" stroke="#FFFFFF" stroke-width="2" id="Scrub Typhus"/><path d="M55.178223626313155,128.1577247039005L56.87186133155237,120.85598218297244L49.38862233036109,122.64890002003234L49.33481809855601,127.55005087230167z" fill="#d62728" stroke="#FFFFFF" stroke-width="2" id="Leptospirosis"/><path d="M5.3290705182007514e-14,113.94784068348046L5.596206188369699e-14,122.41957040114943L20.424320836381767,124.54355875716755L20.659610010252308,122.98124204205118z" fill="#d62728" stroke="#FFFFFF" stroke-width="2" id="Melioidosis"/><path d="M-1.4841456527921842e-14,0L-1.4210854715202004e-14,1.687837115363891L2.6733644902000853,0z" fill="#d62728" stroke="#FFFFFF" stroke-width="2" id="S. suis"/><path d="M7.105427357601002e-15,171.5704051021089L10.326046483266344,180.5965983882262L46.29911135436966,176.15777439413185L50.235744489455705,172.10798683709154L57.564695380044725,160.72517445403122L55.65028165265791,134.59975613716168L50.17954061321489,127.63789618180179L-7.105427357601002e-15,122.41957040114943z" fill="#1f77b4" stroke="#FFFFFF" stroke-width="2" id="HFMD"/><path d="M46.299111354369664,176.15777439413185L53.15235275115898,175.31213245457542L50.235744489455705,172.10798683709154z" fill="#1f77b4" stroke="#FFFFFF" stroke-width="2" id="Amebiasis"/><path d="M50.17954061321489,127.63789618180179L55.65028165265791,134.59975613716168L55.178223626313155,128.1577247039005z" fill="#1f77b4" stroke="#FFFFFF" stroke-width="2" id="Shigellosis"/><path d="M58.584478760664844,174.64184619021802L57.564695380044725,160.72517445403122L50.235744489455705,172.10798683709154L53.152352751158986,175.31213245457542z" fill="#1f77b4" stroke="#FFFFFF" stroke-width="2" id="Typhoid"/><path d="M10.326046483266353,180.5965983882262L-7.105427357601002e-15,171.57040510210888L-3.745045924369459e-15,181.87076012724654z" fill="#1f77b4" stroke="#FFFFFF" stroke-width="2" id="HAV"/><path d="M19.901393362989026,185.93717206714925L11.603825328435079,180.43892943737634L-1.7763568394002505e-15,181.87076012724654L0,223.76992538965402L12.183728432378533,223.02862583205112z" fill="#2ca02c" stroke="#FFFFFF" stroke-width="2" id="Gonorrhoea"/><path d="M58.584478760664844,174.64184619021802L30.290227061872493,178.13315847582845L19.901393362989026,185.93717206714925L12.183728432378533,223.02862583205112L26.40831958853498,240L39.39021486352973,240L67.86880659719138,218.054598336114L69.70120617015111,212.12164604698935z" fill="#2ca02c" stroke="#FFFFFF" stroke-width="2" id="Syphilis"/><path d="M69.31451002614355,240L68.89510552922566,218.7264914384753L67.86880659719138,218.054598336114L39.390214863529735,240z" fill="#2ca02c" stroke="#FFFFFF" stroke-width="2" id="HBV"/><path d="M0,240L26.40831958853498,240L12.183728432378533,223.02862583205112L1.7763568394002505e-15,223.76992538965402z" fill="#2ca02c" stroke="#FFFFFF" stroke-width="2" id="CA"/><path d="M71.5431409900402,218.3316884322827L68.89510552922566,218.7264914384753L69.31451002614355,240L77.9700886803335,240z" fill="#2ca02c" stroke="#FFFFFF" stroke-width="2" id="Genital herpes"/><path d="M11.603825328435079,180.43892943737634L19.901393362989026,185.93717206714925L30.290227061872486,178.13315847582845z" fill="#2ca02c" stroke="#FFFFFF" stroke-width="2" id="Chancroid"/><path d="M68.89510552922566,218.7264914384753L71.54314099004021,218.3316884322827L69.70120617015111,212.12164604698935L67.86880659719138,218.054598336114z" fill="#2ca02c" stroke="#FFFFFF" stroke-width="2" id="HCV"/><path d="M580,0L84.90438202673423,0L55.178223626313155,128.1577247039005L58.584478760664844,174.64184619021802L77.97008868033349,240L580,240z" fill="none" stroke="#FFFFFF" stroke-width="4" id="Respiratory IDs"/><path d="M5.684341886080802e-14,122.41957040114943L55.178223626313155,128.1577247039005L84.90438202673424,0L0,0z" fill="none" stroke="#FFFFFF" stroke-width="4" id="Vector-borne and zoonotic IDs"/><path d="M55.178223626313155,128.1577247039005L-7.105427357601002e-15,122.41957040114943L0,181.87076012724654L58.584478760664844,174.64184619021802z" fill="none" stroke="#FFFFFF" stroke-width="4" id="Gastrointestinal IDs"/><path d="M77.9700886803335,240L58.584478760664844,174.64184619021802L0,181.87076012724654L0,240z" fill="none" stroke="#FFFFFF" stroke-width="4" id="Sexually IDs"/><path d="M0,0L0,240L580,240L580,0z" fill="none" stroke="#FFFFFF" stroke-width="6"/></g><g id="labels"><text text-anchor="middle" dominant-baseline="text-before-edge" transform="translate(548.9814982526702,103.10725644786977)"><tspan x="3" y="0.2em" style="font-family: Arial, sans-serif; font-size: 10px; fill: black; font-weight: bold;">Pneumonia</tspan></text><text text-anchor="middle" dominant-baseline="text-before-edge" transform="translate(318.23975493260696,114.25210890037145)"><tspan x="3" y="0.2em" style="font-family: Arial, sans-serif; font-size: 10px; fill: black; font-weight: bold;">Influenza</tspan></text><text text-anchor="middle" dominant-baseline="text-before-edge" transform="translate(91.3660825950214,129.02170256661583)"><tspan x="3" y="0.2em" style="font-family: Arial, sans-serif; font-size: 10px; fill: black; font-weight: bold;">Chickenpox</tspan></text><text text-anchor="middle" dominant-baseline="text-before-edge" transform="translate(114.3904406423243,231.7644909662446)"><tspan x="3" y="0.2em" style="font-family: Arial, sans-serif; font-size: 10px; fill: black; font-weight: bold;">Mumps</tspan></text><text text-anchor="middle" dominant-baseline="text-before-edge" transform="translate(99.53350309969012,2.0705011716650503)"><tspan x="3" y="0.2em" style="font-family: Arial, sans-serif; font-size: 10px; fill: black; font-weight: bold;">Scarlet fever</tspan></text><text text-anchor="middle" dominant-baseline="text-before-edge" transform="translate(551.099366564652,227.2457696051143)"><tspan x="3" y="0.2em" style="font-family: Arial, sans-serif; font-size: 10px; fill: black; font-weight: bold;">Rubella</tspan></text><text text-anchor="middle" dominant-baseline="text-before-edge" transform="translate(36.11731762638714,50.91648255911093)"><tspan x="3" y="0.2em" style="font-family: Arial, sans-serif; font-size: 10px; fill: black; font-weight: bold;">Dengue fever</tspan></text><text text-anchor="middle" dominant-baseline="text-before-edge" transform="translate(36.90437026181212,118.95255191424249)"><tspan x="3" y="0.2em" style="font-family: Arial, sans-serif; font-size: 10px; fill: black; font-weight: bold;">Scrub Typhus</tspan></text><text text-anchor="middle" dominant-baseline="text-before-edge" transform="translate(52.459069720706545,119.123309493548)"><tspan x="3" y="0.2em" style="font-family: Arial, sans-serif; font-size: 10px; fill: black; font-weight: bold;">Leptospirosis</tspan></text><text text-anchor="middle" dominant-baseline="text-before-edge" transform="translate(8.255166803116733,114.63790345108286)"><tspan x="3" y="0.2em" style="font-family: Arial, sans-serif; font-size: 10px; fill: black; font-weight: bold;">Melioidosis</tspan></text><text text-anchor="middle" dominant-baseline="text-before-edge" transform="translate(0.6549454225476632,-5.252353713673695)"><tspan x="3" y="0.2em" style="font-family: Arial, sans-serif; font-size: 10px; fill: black; font-weight: bold;">S. suis</tspan></text><text text-anchor="middle" dominant-baseline="text-before-edge" transform="translate(26.866730975425895,145.548558323635)"><tspan x="3" y="0.2em" style="font-family: Arial, sans-serif; font-size: 10px; fill: black; font-weight: bold;">HFMD</tspan></text><text text-anchor="middle" dominant-baseline="text-before-edge" transform="translate(50.538446477322,168.55886646858846)"><tspan x="3" y="0.2em" style="font-family: Arial, sans-serif; font-size: 10px; fill: black; font-weight: bold;">Amebiasis</tspan></text><text text-anchor="middle" dominant-baseline="text-before-edge" transform="translate(53.636886654845284,124.51214129618168)"><tspan x="3" y="0.2em" style="font-family: Arial, sans-serif; font-size: 10px; fill: black; font-weight: bold;">Shigellosis</tspan></text><text text-anchor="middle" dominant-baseline="text-before-edge" transform="translate(55.537416768785,164.00849960244727)"><tspan x="3" y="0.2em" style="font-family: Arial, sans-serif; font-size: 10px; fill: black; font-weight: bold;">Typhoid</tspan></text><text text-anchor="middle" dominant-baseline="text-before-edge" transform="translate(3.4956952291863272,172.2852338886183)"><tspan x="3" y="0.2em" style="font-family: Arial, sans-serif; font-size: 10px; fill: black; font-weight: bold;">HAV</tspan></text><text text-anchor="middle" dominant-baseline="text-before-edge" transform="translate(8.223691721571527,194.8872389237192)"><tspan x="3" y="0.2em" style="font-family: Arial, sans-serif; font-size: 10px; fill: black; font-weight: bold;">Gonorrhoea</tspan></text><text text-anchor="middle" dominant-baseline="text-before-edge" transform="translate(40.31870639615738,201.56528855670143)"><tspan x="3" y="0.2em" style="font-family: Arial, sans-serif; font-size: 10px; fill: black; font-weight: bold;">Syphilis</tspan></text><text text-anchor="middle" dominant-baseline="text-before-edge" transform="translate(59.50155992509653,226.45891603750096)"><tspan x="3" y="0.2em" style="font-family: Arial, sans-serif; font-size: 10px; fill: black; font-weight: bold;">HBV</tspan></text><text text-anchor="middle" dominant-baseline="text-before-edge" transform="translate(10.167593869994871,226.836503741969)"><tspan x="3" y="0.2em" style="font-family: Arial, sans-serif; font-size: 10px; fill: black; font-weight: bold;">CA</tspan></text><text text-anchor="middle" dominant-baseline="text-before-edge" transform="translate(72.14672651307876,226.20961819761067)"><tspan x="3" y="0.2em" style="font-family: Arial, sans-serif; font-size: 10px; fill: black; font-weight: bold;">Genital herpes</tspan></text><text text-anchor="middle" dominant-baseline="text-before-edge" transform="translate(20.91487453660181,175.7345823500632)"><tspan x="3" y="0.2em" style="font-family: Arial, sans-serif; font-size: 10px; fill: black; font-weight: bold;">Chancroid</tspan></text><text text-anchor="middle" dominant-baseline="text-before-edge" transform="translate(69.83142103246023,210.680326578425)"><tspan x="3" y="0.2em" style="font-family: Arial, sans-serif; font-size: 10px; fill: black; font-weight: bold;">HCV</tspan></text></g></g></svg>